<svg width="51" height="52" fill="none" xmlns="http://www.w3.org/2000/svg"><path fill-rule="evenodd" clip-rule="evenodd" d="M23.032 5.228c-9.893 0-17.914 8.191-17.914 18.296 0 10.105 8.02 18.296 17.914 18.296 9.894 0 17.914-8.191 17.914-18.296 0-10.105-8.02-18.296-17.914-18.296ZM0 23.524C0 10.532 10.312 0 23.032 0s23.033 10.532 23.033 23.524-10.312 23.524-23.033 23.524C10.312 47.048 0 36.516 0 23.524Z" fill="#3F69FD"/><path fill-rule="evenodd" clip-rule="evenodd" d="M36.098 36.26a2.389 2.389 0 0 1 3.508 0l10.667 11.267c.97 1.023.97 2.682 0 3.705a2.389 2.389 0 0 1-3.508 0L36.098 39.965c-.97-1.023-.97-2.682 0-3.706Z" fill="#3F69FD"/></svg>