<svg width="70" height="52" fill="none" xmlns="http://www.w3.org/2000/svg"><path fill-rule="evenodd" clip-rule="evenodd" d="M33.577.336a3.18 3.18 0 0 1 2.846 0l31.818 15.918A3.184 3.184 0 0 1 70 19.102v19.102a3.183 3.183 0 1 1-6.364 0v-13.95L36.423 37.867a3.18 3.18 0 0 1-2.846 0L1.759 21.95a3.184 3.184 0 0 1 0-5.695L33.577.335Zm26.126 18.766L35 31.461 10.297 19.102 35 6.743l24.703 12.359Z" fill="#3F69FD"/><path fill-rule="evenodd" clip-rule="evenodd" d="M15.91 22.286c1.756 0 3.18 1.438 3.18 3.212v14.664c4.039 3.52 9.865 5.413 15.91 5.413s11.871-1.893 15.91-5.413V25.498c0-1.774 1.424-3.212 3.18-3.212 1.758 0 3.183 1.438 3.183 3.212V41.56a3.23 3.23 0 0 1-.932 2.271C50.836 49.388 42.79 52 35 52c-7.79 0-15.836-2.611-21.34-8.169a3.228 3.228 0 0 1-.933-2.271V25.498c0-1.774 1.425-3.212 3.182-3.212Z" fill="#3F69FD"/></svg>