<svg width="57" height="52" fill="none" xmlns="http://www.w3.org/2000/svg"><path fill-rule="evenodd" clip-rule="evenodd" d="M46.444 12.735c1.1 0 2.085.673 2.471 1.69l7.917 20.838a2.585 2.585 0 0 1-.892 3.002 15.992 15.992 0 0 1-9.495 3.123 15.992 15.992 0 0 1-9.496-3.123 2.585 2.585 0 0 1-.892-3.002l7.917-20.838a2.638 2.638 0 0 1 2.47-1.69Zm-4.686 22.358a10.657 10.657 0 0 0 9.372 0l-4.686-12.335-4.686 12.335ZM10.556 12.735c1.1 0 2.084.673 2.47 1.69l7.917 20.838a2.585 2.585 0 0 1-.892 3.002 15.992 15.992 0 0 1-9.495 3.123 15.992 15.992 0 0 1-9.496-3.123 2.585 2.585 0 0 1-.892-3.002l7.917-20.838a2.638 2.638 0 0 1 2.47-1.69ZM5.87 35.093a10.657 10.657 0 0 0 9.372 0l-4.686-12.335L5.87 35.093Zm6.797 14.254a2.646 2.646 0 0 1 2.639-2.653h26.389a2.646 2.646 0 0 1 2.638 2.653A2.646 2.646 0 0 1 41.694 52H15.306a2.646 2.646 0 0 1-2.64-2.653Z" fill="#3F69FD"/><path fill-rule="evenodd" clip-rule="evenodd" d="M28.5 0c1.166 0 2.111 1.164 2.111 2.6v46.8c0 1.436-.945 2.6-2.111 2.6-1.166 0-2.111-1.164-2.111-2.6V2.6c0-1.436.945-2.6 2.111-2.6Z" fill="#3F69FD"/><path fill-rule="evenodd" clip-rule="evenodd" d="M27.871 5.586a2.528 2.528 0 0 1 2.313 0c5.026 2.578 12.36 5.026 16.947 5.026h5.172c1.428 0 2.586 1.188 2.586 2.653 0 1.466-1.158 2.653-2.586 2.653H47.13c-5.356 0-12.808-2.472-18.103-5.012-5.295 2.54-12.748 5.012-18.103 5.012H5.753c-1.428 0-2.586-1.187-2.586-2.653 0-1.465 1.158-2.653 2.586-2.653h5.172c4.586 0 11.92-2.448 16.946-5.026Z" fill="#3F69FD"/></svg>